# xmcd CD database file
#
# Track frame offsets:
#	150
#	41818
#	70390
#	84954
#	121268
#	154568
#	191734
#	216691
#	253756
#	289022
#
# Disc length: 4206 seconds
#
# Revision: 0
# Processed by: cddbd v1.5.1PL2 Copyright (c) Steve Scherf et al.
# Submitted via: CDex 1.51
#
DISCID=95106c0a
DTITLE=Dave Brubeck - The Jazz at theCollege of the Pacific Recordings
DYEAR=1968
DGENRE=Jazz
TTITLE0=ALL THE THINGS YOU ARE
TTITLE1=CRAZY RHYTHM
TTITLE2=LUARA
TTITLE3=LET'S FALL IN LOVE
TTITLE4=LULLABY IN RHYTHM
TTITLE5=STARDUST
TTITLE6=I'LL NEVER SMILE AGAIN
TTITLE7=HOW HIGH THE MOON
TTITLE8=THE WAY YOU LOOK TONIGHT
TTITLE9=FOR ALL WE KNOW
EXTD=YEAR: 1968
EXTT0=
EXTT1=
EXTT2=
EXTT3=
EXTT4=
EXTT5=
EXTT6=
EXTT7=
EXTT8=
EXTT9=
PLAYORDER=
